<svg viewBox="0 0 64 64" xmlns="http://www.w3.org/2000/svg"><g fill="none" stroke="#32373c" stroke-linecap="round" stroke-miterlimit="10" stroke-width="6"><rect height="37.31" rx="18.1" width="36.54" x="13.67" y="3"/><path d="m50.05 18.74c-12.68 4.84-19.47-4.41-23.8-4.55-2.75-.08-3.47 6-12.42 4.51"/><path d="m21.84 38.16v5.51a1.6 1.6 0 0 1 -1.14 1.5c-3.7 1.17-15.46 2.44-17.63 10.28-.35 1.28.61 5.55 1.93 5.55h54c1.34 0 2.3-4.27 2-5.55-2.24-7.84-14-9.11-17.7-10.28a1.6 1.6 0 0 1 -1.14-1.5v-5.51"/><path d="m29.5 29.24h5.47"/><path d="m20.7 45.17s6.38 15.83 11.24 15.83 11.36-15.83 11.36-15.83"/></g></svg>