<svg viewBox="0 0 64 64" xmlns="http://www.w3.org/2000/svg"><g fill="none" stroke="#32373c" stroke-miterlimit="10" stroke-width="6"><path d="m51.73 57.16 3.27-3.27a2 2 0 0 0 -.24-3l-9.26-9.19a2 2 0 0 1 -.24-3l4.53-4.6a1.94 1.94 0 0 0 -.72-3.2l-30.85-10.28a2 2 0 0 0 -2.43 2.47l10.21 31.36a1.88 1.88 0 0 0 3.14.73l4.53-4.6a1.89 1.89 0 0 1 2.91.24l9.09 9.36a1.87 1.87 0 0 0 2.9.24z"/><path d="m61 40.41v-35.41a2 2 0 0 0 -2-2h-54a2 2 0 0 0 -2 2v40.5a2 2 0 0 0 2 2h6.9" stroke-linecap="round"/></g></svg>