<svg enable-background="new 0 0 64 64" viewBox="0 0 64 64" xmlns="http://www.w3.org/2000/svg"><g fill="none" stroke="#32373c" stroke-miterlimit="10" stroke-width="6"><path d="m58.1 27.7h-52.2c-1.6 0-2.9 1-2.9 2.1v8.1c0 5.7.8 9.7 8 11.7 2.1.6 3.6 3.8 3.6 3.8l2 6.5c0 .6.6 1.1 1.3 1.1h28.2c.7 0 1.3-.5 1.3-1.1l2-6.5s1.5-3.1 3.6-3.8c7.2-1.9 8-5.9 8-11.7v-8.1c0-1.2-1.3-2.1-2.9-2.1z" stroke-linecap="round"/><path d="m14.2 27.7v-19.9c0-2.6 2.6-4.8 6-4.8 3.2 0 6 2.1 6 4.8v19.9"/><path d="m37.8 27.7v-19.9c0-2.6 2.6-4.8 6-4.8 3.2 0 6 2.1 6 4.8v19.9"/><path d="m24.5 41.9h15" stroke-linecap="round"/></g></svg>