<svg viewBox="0 0 64 64" xmlns="http://www.w3.org/2000/svg"><path d="m33.89 4.23 7.33 15.55a2.12 2.12 0 0 0 1.59 1.22l16.38 2.5a2.24 2.24 0 0 1 1.17 3.77l-11.85 12.09a2.27 2.27 0 0 0 -.61 2l2.8 17.09a2.14 2.14 0 0 1 -3.07 2.33l-14.63-8.11a2 2 0 0 0 -2 0l-14.63 8.07a2.14 2.14 0 0 1 -3.07-2.33l2.8-17.09a2.27 2.27 0 0 0 -.61-2l-11.85-12.06a2.24 2.24 0 0 1 1.17-3.77l16.38-2.49a2.12 2.12 0 0 0 1.59-1.21l7.33-15.56a2.07 2.07 0 0 1 3.78 0z" fill="none" stroke="#32373c" stroke-linecap="round" stroke-miterlimit="10" stroke-width="6"/></svg>